<svg width="1200" height="800" viewBox="0 0 1200 800" fill="none" xmlns="http://www.w3.org/2000/svg">
  <rect width="1200" height="800" fill="#f8fafc"/>
  <path d="M0 0H1200V800H0V0Z" fill="url(#paint0_linear_1_2)"/>
  <g opacity="0.4">
    <path d="M281.5 503.5C373.1 503.5 447.5 429.1 447.5 337.5C447.5 245.9 373.1 171.5 281.5 171.5C189.9 171.5 115.5 245.9 115.5 337.5C115.5 429.1 189.9 503.5 281.5 503.5Z" stroke="#4F46E5" stroke-width="3"/>
    <path d="M825.5 251.5C917.1 251.5 991.5 177.1 991.5 85.5C991.5 -6.1 917.1 -80.5 825.5 -80.5C733.9 -80.5 659.5 -6.1 659.5 85.5C659.5 177.1 733.9 251.5 825.5 251.5Z" stroke="#4F46E5" stroke-width="3"/>
    <path d="M995.5 559.5C1087.1 559.5 1161.5 485.1 1161.5 393.5C1161.5 301.9 1087.1 227.5 995.5 227.5C903.9 227.5 829.5 301.9 829.5 393.5C829.5 485.1 903.9 559.5 995.5 559.5Z" stroke="#4F46E5" stroke-width="3"/>
    <path d="M580.5 759.5C672.1 759.5 746.5 685.1 746.5 593.5C746.5 501.9 672.1 427.5 580.5 427.5C488.9 427.5 414.5 501.9 414.5 593.5C414.5 685.1 488.9 759.5 580.5 759.5Z" stroke="#4F46E5" stroke-width="3"/>
  </g>
  <path d="M281.5 337.5L580.5 593.5L995.5 393.5L825.5 85.5L281.5 337.5Z" stroke="#4F46E5" stroke-width="5"/>
  <circle cx="281.5" cy="337.5" r="20" fill="#4F46E5"/>
  <circle cx="580.5" cy="593.5" r="20" fill="#4F46E5"/>
  <circle cx="995.5" cy="393.5" r="20" fill="#4F46E5"/>
  <circle cx="825.5" cy="85.5" r="20" fill="#4F46E5"/>
  <defs>
    <linearGradient id="paint0_linear_1_2" x1="600" y1="0" x2="600" y2="800" gradientUnits="userSpaceOnUse">
      <stop stop-color="#EEF2FF"/>
      <stop offset="1" stop-color="#F8FAFC"/>
    </linearGradient>
  </defs>
</svg>
